<svg width="40" height="40" viewBox="0 0 40 40" xmlns="http://www.w3.org/2000/svg"><g id="svgGroup">
<circle cx="20" cy="20" r="20" fill="red"/>
<path fill="#FFF" d="M 24.76 31.4 L 15.16 31.4 Q 15 30.72 15 29.8 Q 15 28.84 15.16 28.2 L 18.36 28.2 Q 18.2 27.52 18.2 26.6 Q 18.2 25.64 18.36 25 Q 18.2 24.32 18.2 23.4 Q 18.2 22.44 18.36 21.8 Q 18.2 21.12 18.2 20.2 Q 18.2 19.24 18.36 18.6 Q 18.2 17.92 18.2 17 Q 18.2 16.04 18.36 15.4 L 15.96 15.4 Q 15.8 14.72 15.8 13.8 Q 15.8 12.84 15.96 12.2 L 18.36 12.2 Q 18.2 11.52 18.2 10.6 Q 18.2 9.64 18.36 9 L 21.56 9 Q 21.679 9.478 21.71 10.133 A 10.123 10.123 0 0 1 21.72 10.6 A 8.945 8.945 0 0 1 21.692 11.334 Q 21.662 11.689 21.603 11.998 A 4.924 4.924 0 0 1 21.56 12.2 Q 21.679 12.678 21.71 13.333 A 10.123 10.123 0 0 1 21.72 13.8 A 8.945 8.945 0 0 1 21.692 14.534 Q 21.662 14.889 21.603 15.198 A 4.924 4.924 0 0 1 21.56 15.4 Q 21.679 15.878 21.71 16.533 A 10.123 10.123 0 0 1 21.72 17 A 8.945 8.945 0 0 1 21.692 17.734 Q 21.662 18.089 21.603 18.398 A 4.924 4.924 0 0 1 21.56 18.6 Q 21.679 19.078 21.71 19.733 A 10.123 10.123 0 0 1 21.72 20.2 A 8.945 8.945 0 0 1 21.692 20.934 Q 21.662 21.289 21.603 21.598 A 4.924 4.924 0 0 1 21.56 21.8 Q 21.679 22.278 21.71 22.933 A 10.123 10.123 0 0 1 21.72 23.4 A 8.945 8.945 0 0 1 21.692 24.134 Q 21.662 24.489 21.603 24.798 A 4.924 4.924 0 0 1 21.56 25 Q 21.679 25.478 21.71 26.133 A 10.123 10.123 0 0 1 21.72 26.6 A 8.945 8.945 0 0 1 21.692 27.334 Q 21.662 27.689 21.603 27.998 A 4.924 4.924 0 0 1 21.56 28.2 L 24.76 28.2 Q 24.879 28.678 24.91 29.333 A 10.123 10.123 0 0 1 24.92 29.8 A 8.945 8.945 0 0 1 24.892 30.534 Q 24.862 30.889 24.803 31.198 A 4.924 4.924 0 0 1 24.76 31.4 Z"/></g></svg>