<svg width="40" height="40" viewBox="0 0 40 40" xmlns="http://www.w3.org/2000/svg"><g id="svgGroup">
<circle cx="20" cy="20" r="20" fill="red"/>
<path fill="#FFF" d="M 25.36 18.6 L 23.36 18.6 Q 23.479 19.078 23.51 19.733 A 10.123 10.123 0 0 1 23.52 20.2 A 8.945 8.945 0 0 1 23.492 20.934 Q 23.462 21.289 23.403 21.598 A 4.924 4.924 0 0 1 23.36 21.8 L 21.36 21.8 Q 21.479 22.278 21.51 22.933 A 10.123 10.123 0 0 1 21.52 23.4 A 8.945 8.945 0 0 1 21.492 24.134 Q 21.462 24.489 21.403 24.798 A 4.924 4.924 0 0 1 21.36 25 L 19.36 25 Q 19.479 25.478 19.51 26.133 A 10.123 10.123 0 0 1 19.52 26.6 A 8.945 8.945 0 0 1 19.492 27.334 Q 19.462 27.689 19.403 27.998 A 4.924 4.924 0 0 1 19.36 28.2 L 25.36 28.2 Q 25.479 28.678 25.51 29.333 A 10.123 10.123 0 0 1 25.52 29.8 A 8.945 8.945 0 0 1 25.492 30.534 Q 25.462 30.889 25.403 31.198 A 4.924 4.924 0 0 1 25.36 31.4 L 14.16 31.4 Q 14 30.72 14 29.8 Q 14 28.84 14.16 28.2 L 16.16 28.2 Q 16 27.52 16 26.6 Q 16 25.64 16.16 25 L 18.16 25 Q 18 24.32 18 23.4 Q 18 22.44 18.16 21.8 L 20.16 21.8 Q 20 21.12 20 20.2 Q 20 19.24 20.16 18.6 L 22.16 18.6 Q 22 17.92 22 17 Q 22 16.04 22.16 15.4 Q 22 14.72 22 13.8 Q 22 12.84 22.16 12.2 L 16.56 12.2 Q 16.679 12.678 16.71 13.333 A 10.123 10.123 0 0 1 16.72 13.8 A 8.945 8.945 0 0 1 16.692 14.534 Q 16.662 14.889 16.603 15.198 A 4.924 4.924 0 0 1 16.56 15.4 L 14.16 15.4 Q 14 14.72 14 13.8 Q 14 12.84 14.16 12.2 L 15.76 12.2 Q 15.6 11.52 15.6 10.6 Q 15.6 9.64 15.76 9 L 23.76 9 Q 23.879 9.478 23.91 10.133 A 10.123 10.123 0 0 1 23.92 10.6 A 8.945 8.945 0 0 1 23.892 11.334 Q 23.862 11.689 23.803 11.998 A 4.924 4.924 0 0 1 23.76 12.2 L 25.36 12.2 Q 25.479 12.678 25.51 13.333 A 10.123 10.123 0 0 1 25.52 13.8 A 8.945 8.945 0 0 1 25.492 14.534 Q 25.462 14.889 25.403 15.198 A 4.924 4.924 0 0 1 25.36 15.4 Q 25.479 15.878 25.51 16.533 A 10.123 10.123 0 0 1 25.52 17 A 8.945 8.945 0 0 1 25.492 17.734 Q 25.462 18.089 25.403 18.398 A 4.924 4.924 0 0 1 25.36 18.6 Z"/></g></svg>