<svg width="40" height="40" viewBox="0 0 40 40" xmlns="http://www.w3.org/2000/svg"><g id="svgGroup">
<circle cx="20" cy="20" r="20" fill="red"/>
<path fill="#FFF" d="M 25.36 18.6 L 23.76 18.6 Q 23.879 19.078 23.91 19.733 A 10.123 10.123 0 0 1 23.92 20.2 A 8.945 8.945 0 0 1 23.892 20.934 Q 23.862 21.289 23.803 21.598 A 4.924 4.924 0 0 1 23.76 21.8 L 25.36 21.8 Q 25.479 22.278 25.51 22.933 A 10.123 10.123 0 0 1 25.52 23.4 A 8.945 8.945 0 0 1 25.492 24.134 Q 25.462 24.489 25.403 24.798 A 4.924 4.924 0 0 1 25.36 25 Q 25.479 25.478 25.51 26.133 A 10.123 10.123 0 0 1 25.52 26.6 A 8.945 8.945 0 0 1 25.492 27.334 Q 25.462 27.689 25.403 27.998 A 4.924 4.924 0 0 1 25.36 28.2 L 23.76 28.2 Q 23.879 28.678 23.91 29.333 A 10.123 10.123 0 0 1 23.92 29.8 A 8.945 8.945 0 0 1 23.892 30.534 Q 23.862 30.889 23.803 31.198 A 4.924 4.924 0 0 1 23.76 31.4 L 15.76 31.4 Q 15.6 30.72 15.6 29.8 Q 15.6 28.84 15.76 28.2 L 14.16 28.2 Q 14 27.52 14 26.6 Q 14 25.64 14.16 25 L 17.36 25 Q 17.479 25.478 17.51 26.133 A 10.123 10.123 0 0 1 17.52 26.6 A 8.945 8.945 0 0 1 17.492 27.334 Q 17.462 27.689 17.403 27.998 A 4.924 4.924 0 0 1 17.36 28.2 L 22.16 28.2 Q 22 27.52 22 26.6 Q 22 25.64 22.16 25 Q 22 24.32 22 23.4 Q 22 22.44 22.16 21.8 L 18.16 21.8 Q 18 21.12 18 20.2 Q 18 19.24 18.16 18.6 L 22.16 18.6 Q 22 17.92 22 17 Q 22 16.04 22.16 15.4 Q 22 14.72 22 13.8 Q 22 12.84 22.16 12.2 L 17.36 12.2 Q 17.479 12.678 17.51 13.333 A 10.123 10.123 0 0 1 17.52 13.8 A 8.945 8.945 0 0 1 17.492 14.534 Q 17.462 14.889 17.403 15.198 A 4.924 4.924 0 0 1 17.36 15.4 L 14.16 15.4 Q 14 14.72 14 13.8 Q 14 12.84 14.16 12.2 L 15.76 12.2 Q 15.6 11.52 15.6 10.6 Q 15.6 9.64 15.76 9 L 23.76 9 Q 23.879 9.478 23.91 10.133 A 10.123 10.123 0 0 1 23.92 10.6 A 8.945 8.945 0 0 1 23.892 11.334 Q 23.862 11.689 23.803 11.998 A 4.924 4.924 0 0 1 23.76 12.2 L 25.36 12.2 Q 25.479 12.678 25.51 13.333 A 10.123 10.123 0 0 1 25.52 13.8 A 8.945 8.945 0 0 1 25.492 14.534 Q 25.462 14.889 25.403 15.198 A 4.924 4.924 0 0 1 25.36 15.4 Q 25.479 15.878 25.51 16.533 A 10.123 10.123 0 0 1 25.52 17 A 8.945 8.945 0 0 1 25.492 17.734 Q 25.462 18.089 25.403 18.398 A 4.924 4.924 0 0 1 25.36 18.6 Z"/></g></svg>