<svg width="40" height="40" viewBox="0 0 40 40" xmlns="http://www.w3.org/2000/svg"><g id="svgGroup">
<circle cx="20" cy="20" r="20" fill="red"/>
<path fill="#FFF" fill-rule="evenodd" d="M 25.96 25 L 24.36 25 Q 24.479 25.478 24.51 26.133 A 10.123 10.123 0 0 1 24.52 26.6 A 8.945 8.945 0 0 1 24.492 27.334 Q 24.462 27.689 24.403 27.998 A 4.924 4.924 0 0 1 24.36 28.2 Q 24.479 28.678 24.51 29.333 A 10.123 10.123 0 0 1 24.52 29.8 A 8.945 8.945 0 0 1 24.492 30.534 Q 24.462 30.889 24.403 31.198 A 4.924 4.924 0 0 1 24.36 31.4 L 21.16 31.4 Q 21 30.72 21 29.8 Q 21 28.84 21.16 28.2 Q 21 27.52 21 26.6 Q 21 25.64 21.16 25 L 13.16 25 Q 13 24.32 13 23.4 Q 13 22.44 13.16 21.8 L 14.36 21.8 Q 14.2 21.12 14.2 20.2 Q 14.2 19.24 14.36 18.6 L 15.56 18.6 Q 15.4 17.92 15.4 17 Q 15.4 16.04 15.56 15.4 L 16.76 15.4 Q 16.6 14.72 16.6 13.8 Q 16.6 12.84 16.76 12.2 L 18.76 12.2 L 21.16 12.2 Q 21 12.84 21 13.8 Q 21 14.72 21.16 15.4 Q 21 16.04 21 17 Q 21 17.92 21.16 18.6 Q 21 19.24 21 20.2 Q 21 21.12 21.16 21.8 L 16.36 21.8 A 4.924 4.924 0 0 0 16.403 21.598 Q 16.462 21.289 16.492 20.934 A 8.945 8.945 0 0 0 16.52 20.2 A 10.123 10.123 0 0 0 16.51 19.733 Q 16.479 19.078 16.36 18.6 L 17.56 18.6 A 4.924 4.924 0 0 0 17.603 18.398 Q 17.662 18.089 17.692 17.734 A 8.945 8.945 0 0 0 17.72 17 A 10.123 10.123 0 0 0 17.71 16.533 Q 17.679 15.878 17.56 15.4 L 18.76 15.4 A 4.924 4.924 0 0 0 18.803 15.198 Q 18.862 14.889 18.892 14.534 A 8.945 8.945 0 0 0 18.92 13.8 A 10.123 10.123 0 0 0 18.91 13.333 Q 18.879 12.678 18.76 12.2 Q 18.6 11.52 18.6 10.6 Q 18.6 9.64 18.76 9 L 24.36 9 Q 24.479 9.478 24.51 10.133 A 10.123 10.123 0 0 1 24.52 10.6 A 8.945 8.945 0 0 1 24.492 11.334 Q 24.462 11.689 24.403 11.998 A 4.924 4.924 0 0 1 24.36 12.2 Q 24.479 12.678 24.51 13.333 A 10.123 10.123 0 0 1 24.52 13.8 A 8.945 8.945 0 0 1 24.492 14.534 Q 24.462 14.889 24.403 15.198 A 4.924 4.924 0 0 1 24.36 15.4 Q 24.479 15.878 24.51 16.533 A 10.123 10.123 0 0 1 24.52 17 A 8.945 8.945 0 0 1 24.492 17.734 Q 24.462 18.089 24.403 18.398 A 4.924 4.924 0 0 1 24.36 18.6 Q 24.479 19.078 24.51 19.733 A 10.123 10.123 0 0 1 24.52 20.2 A 8.945 8.945 0 0 1 24.492 20.934 Q 24.462 21.289 24.403 21.598 A 4.924 4.924 0 0 1 24.36 21.8 L 25.96 21.8 Q 26.079 22.278 26.11 22.933 A 10.123 10.123 0 0 1 26.12 23.4 A 8.945 8.945 0 0 1 26.092 24.134 Q 26.062 24.489 26.003 24.798 A 4.924 4.924 0 0 1 25.96 25 Z"/></g></svg>