<svg width="9" height="7" fill="none" xmlns="http://www.w3.org/2000/svg">
<path d="M1.71129 3.21388C1.32309 2.82088 0.689893 2.81688 0.297093 3.20488C-0.0957071 3.59388 -0.0995071 4.22689 0.288693 4.61989L1.71129 3.21388ZM3.05879 5.99989L2.34749 6.70289C2.53539 6.89289 2.79159 6.99989 3.05879 6.99989C3.32609 6.99989 3.58219 6.89289 3.77009 6.70289L3.05879 5.99989ZM8.71129 1.70289C9.09949 1.30989 9.09569 0.676892 8.70289 0.288892C8.31009 -0.0991083 7.67689 -0.0961127 7.28869 0.296887L8.71129 1.70289ZM0.288693 4.61989L2.34749 6.70289L3.77009 5.29689L1.71129 3.21388L0.288693 4.61989ZM3.77009 6.70289L8.71129 1.70289L7.28869 0.296887L2.34749 5.29689L3.77009 6.70289Z" fill="white"/>
</svg>
